<?xml version="1.0" encoding="utf-8"?>
<!-- Generator: Adobe Illustrator 28.2.0, SVG Export Plug-In . SVG Version: 6.00 Build 0)  -->
<svg version="1.1" id="Layer_1" xmlns="http://www.w3.org/2000/svg" xmlns:xlink="http://www.w3.org/1999/xlink" x="0px" y="0px"
	 viewBox="0 0 48 48" style="enable-background:new 0 0 48 48;" xml:space="preserve">
<style type="text/css">
	.st0{fill:#D4145A;}
</style>
<g>
	<path class="st0" d="M14.65,22l2.62-10.08l0.14-0.23c0.49-0.85,1.41-1.38,2.39-1.38c0,0,0,0,0,0c0.98,0,1.9,0.53,2.4,1.38
		l0.13,0.23l4.84,18.06l1.56-5.97c0.46-1.2,1.63-2.01,2.92-2.01H48C46.97,9.54,36.4-0.23,23.6,0C11.47,0.22,1.41,10.13,0.14,22
		H14.65z"/>
	<path class="st0" d="M32.35,26l-2.62,10.07l-0.14,0.24c-0.49,0.85-1.41,1.38-2.4,1.38c0,0,0,0,0,0c-0.99,0-1.91-0.53-2.4-1.38
		l-0.13-0.23l-4.84-18.04l-1.56,5.96C17.8,25.2,16.63,26,15.34,26H0v18.27V46c0,1.1,0.9,2,2,2h21.5c12.46,0,23.42-9.75,24.49-22
		H32.35z"/>
</g>
</svg>
